<svg id="my-svg" width="100%" xmlns="http://www.w3.org/2000/svg" xmlns:xlink="http://www.w3.org/1999/xlink" class="classDiagram" style="max-width: 893.125px; background-color: white;" viewBox="0 0 893.125 822" role="graphics-document document" aria-roledescription="class"><style>#my-svg{font-family:"trebuchet ms",verdana,arial,sans-serif;font-size:16px;fill:#333;}@keyframes edge-animation-frame{from{stroke-dashoffset:0;}}@keyframes dash{to{stroke-dashoffset:0;}}#my-svg .edge-animation-slow{stroke-dasharray:9,5!important;stroke-dashoffset:900;animation:dash 50s linear infinite;stroke-linecap:round;}#my-svg .edge-animation-fast{stroke-dasharray:9,5!important;stroke-dashoffset:900;animation:dash 20s linear infinite;stroke-linecap:round;}#my-svg .error-icon{fill:#552222;}#my-svg .error-text{fill:#552222;stroke:#552222;}#my-svg .edge-thickness-normal{stroke-width:1px;}#my-svg .edge-thickness-thick{stroke-width:3.5px;}#my-svg .edge-pattern-solid{stroke-dasharray:0;}#my-svg .edge-thickness-invisible{stroke-width:0;fill:none;}#my-svg .edge-pattern-dashed{stroke-dasharray:3;}#my-svg .edge-pattern-dotted{stroke-dasharray:2;}#my-svg .marker{fill:#333333;stroke:#333333;}#my-svg .marker.cross{stroke:#333333;}#my-svg svg{font-family:"trebuchet ms",verdana,arial,sans-serif;font-size:16px;}#my-svg p{margin:0;}#my-svg g.classGroup text{fill:#9370DB;stroke:none;font-family:"trebuchet ms",verdana,arial,sans-serif;font-size:10px;}#my-svg g.classGroup text .title{font-weight:bolder;}#my-svg .cluster-label text{fill:#333;}#my-svg .cluster-label span{color:#333;}#my-svg .cluster-label span p{background-color:transparent;}#my-svg .cluster rect{fill:#ffffde;stroke:#aaaa33;stroke-width:1px;}#my-svg .cluster text{fill:#333;}#my-svg .cluster span{color:#333;}#my-svg .nodeLabel,#my-svg .edgeLabel{color:#131300;}#my-svg .noteLabel .nodeLabel,#my-svg .noteLabel .edgeLabel{color:black;}#my-svg .edgeLabel .label rect{fill:#ECECFF;}#my-svg .label text{fill:#131300;}#my-svg .labelBkg{background:#ECECFF;}#my-svg .edgeLabel .label span{background:#ECECFF;}#my-svg .classTitle{font-weight:bolder;}#my-svg .node rect,#my-svg .node circle,#my-svg .node ellipse,#my-svg .node polygon,#my-svg .node path{fill:#ECECFF;stroke:#9370DB;stroke-width:1;}#my-svg .divider{stroke:#9370DB;stroke-width:1;}#my-svg g.clickable{cursor:pointer;}#my-svg g.classGroup rect{fill:#ECECFF;stroke:#9370DB;}#my-svg g.classGroup line{stroke:#9370DB;stroke-width:1;}#my-svg .classLabel .box{stroke:none;stroke-width:0;fill:#ECECFF;opacity:0.5;}#my-svg .classLabel .label{fill:#9370DB;font-size:10px;}#my-svg .relation{stroke:#333333;stroke-width:1;fill:none;}#my-svg .dashed-line{stroke-dasharray:3;}#my-svg .dotted-line{stroke-dasharray:1 2;}#my-svg [id$="-compositionStart"],#my-svg .composition{fill:#333333!important;stroke:#333333!important;stroke-width:1;}#my-svg [id$="-compositionEnd"],#my-svg .composition{fill:#333333!important;stroke:#333333!important;stroke-width:1;}#my-svg [id$="-dependencyStart"],#my-svg .dependency{fill:#333333!important;stroke:#333333!important;stroke-width:1;}#my-svg [id$="-dependencyEnd"],#my-svg .dependency{fill:#333333!important;stroke:#333333!important;stroke-width:1;}#my-svg [id$="-extensionStart"],#my-svg .extension{fill:transparent!important;stroke:#333333!important;stroke-width:1;}#my-svg [id$="-extensionEnd"],#my-svg .extension{fill:transparent!important;stroke:#333333!important;stroke-width:1;}#my-svg [id$="-aggregationStart"],#my-svg .aggregation{fill:transparent!important;stroke:#333333!important;stroke-width:1;}#my-svg [id$="-aggregationEnd"],#my-svg .aggregation{fill:transparent!important;stroke:#333333!important;stroke-width:1;}#my-svg [id$="-lollipopStart"],#my-svg .lollipop{fill:#ECECFF!important;stroke:#333333!important;stroke-width:1;}#my-svg [id$="-lollipopEnd"],#my-svg .lollipop{fill:#ECECFF!important;stroke:#333333!important;stroke-width:1;}#my-svg .edgeTerminals{font-size:11px;line-height:initial;}#my-svg .classTitleText{text-anchor:middle;font-size:18px;fill:#333;}#my-svg .edgeLabel[data-look="neo"]{background-color:rgba(232,232,232, 0.8);text-align:center;}#my-svg .edgeLabel[data-look="neo"] p{background-color:rgba(232,232,232, 0.8);}#my-svg .edgeLabel[data-look="neo"] rect{opacity:0.5;background-color:rgba(232,232,232, 0.8);fill:rgba(232,232,232, 0.8);}#my-svg .label-icon{display:inline-block;height:1em;overflow:visible;vertical-align:-0.125em;}#my-svg .node .label-icon path{fill:currentColor;stroke:revert;stroke-width:revert;}#my-svg .node .neo-node{stroke:#9370DB;}#my-svg [data-look="neo"].node rect,#my-svg [data-look="neo"].cluster rect,#my-svg [data-look="neo"].node polygon{stroke:#9370DB;filter:drop-shadow(1px 2px 2px rgba(185, 185, 185, 1));}#my-svg [data-look="neo"].node path{stroke:#9370DB;stroke-width:1px;}#my-svg [data-look="neo"].node .outer-path{filter:drop-shadow(1px 2px 2px rgba(185, 185, 185, 1));}#my-svg [data-look="neo"].node .neo-line path{stroke:#9370DB;filter:none;}#my-svg [data-look="neo"].node circle{stroke:#9370DB;filter:drop-shadow(1px 2px 2px rgba(185, 185, 185, 1));}#my-svg [data-look="neo"].node circle .state-start{fill:#000000;}#my-svg [data-look="neo"].icon-shape .icon{fill:#9370DB;filter:drop-shadow(1px 2px 2px rgba(185, 185, 185, 1));}#my-svg [data-look="neo"].icon-shape .icon-neo path{stroke:#9370DB;filter:drop-shadow(1px 2px 2px rgba(185, 185, 185, 1));}#my-svg :root{--mermaid-font-family:"trebuchet ms",verdana,arial,sans-serif;}</style><g><defs><marker id="my-svg_class-aggregationStart" class="marker aggregation class" refX="18" refY="7" markerWidth="190" markerHeight="240" orient="auto"><path d="M 18,7 L9,13 L1,7 L9,1 Z"/></marker></defs><defs><marker id="my-svg_class-aggregationEnd" class="marker aggregation class" refX="1" refY="7" markerWidth="20" markerHeight="28" orient="auto"><path d="M 18,7 L9,13 L1,7 L9,1 Z"/></marker></defs><defs><marker id="my-svg_class-aggregationStart-margin" class="marker aggregation class" refX="15" refY="7" markerWidth="190" markerHeight="240" orient="auto" markerUnits="userSpaceOnUse"><path d="M 18,7 L9,13 L1,7 L9,1 Z" style="stroke-width: 2;"/></marker></defs><defs><marker id="my-svg_class-aggregationEnd-margin" class="marker aggregation class" refX="1" refY="7" markerWidth="20" markerHeight="28" orient="auto" markerUnits="userSpaceOnUse"><path d="M 18,7 L9,13 L1,7 L9,1 Z" style="stroke-width: 2;"/></marker></defs><defs><marker id="my-svg_class-extensionStart" class="marker extension class" refX="18" refY="7" markerWidth="190" markerHeight="240" orient="auto" markerUnits="userSpaceOnUse"><path d="M 1,7 L18,13 V 1 Z"/></marker></defs><defs><marker id="my-svg_class-extensionEnd" class="marker extension class" refX="1" refY="7" markerWidth="20" markerHeight="28" orient="auto"><path d="M 1,1 V 13 L18,7 Z"/></marker></defs><marker id="my-svg_class-extensionStart-margin" class="marker extension class" refX="18" refY="7" markerWidth="20" markerHeight="28" orient="auto" markerUnits="userSpaceOnUse" viewBox="0 0 20 14"><polygon points="10,7 18,13 18,1" style="stroke-width: 2; stroke-dasharray: 0;"/></marker><defs><marker id="my-svg_class-extensionEnd-margin" class="marker extension class" refX="9" refY="7" markerWidth="20" markerHeight="28" orient="auto" markerUnits="userSpaceOnUse" viewBox="0 0 20 14"><polygon points="10,1 10,13 18,7" style="stroke-width: 2; stroke-dasharray: 0;"/></marker></defs><defs><marker id="my-svg_class-compositionStart" class="marker composition class" refX="18" refY="7" markerWidth="190" markerHeight="240" orient="auto"><path d="M 18,7 L9,13 L1,7 L9,1 Z"/></marker></defs><defs><marker id="my-svg_class-compositionEnd" class="marker composition class" refX="1" refY="7" markerWidth="20" markerHeight="28" orient="auto"><path d="M 18,7 L9,13 L1,7 L9,1 Z"/></marker></defs><defs><marker id="my-svg_class-compositionStart-margin" class="marker composition class" refX="15" refY="7" markerWidth="190" markerHeight="240" orient="auto" markerUnits="userSpaceOnUse"><path viewBox="0 0 15 15" d="M 18,7 L9,13 L1,7 L9,1 Z" style="stroke-width: 0;"/></marker></defs><defs><marker id="my-svg_class-compositionEnd-margin" class="marker composition class" refX="3.5" refY="7" markerWidth="20" markerHeight="28" orient="auto" markerUnits="userSpaceOnUse"><path d="M 18,7 L9,13 L1,7 L9,1 Z" style="stroke-width: 0;"/></marker></defs><defs><marker id="my-svg_class-dependencyStart" class="marker dependency class" refX="6" refY="7" markerWidth="190" markerHeight="240" orient="auto"><path d="M 5,7 L9,13 L1,7 L9,1 Z"/></marker></defs><defs><marker id="my-svg_class-dependencyEnd" class="marker dependency class" refX="13" refY="7" markerWidth="20" markerHeight="28" orient="auto"><path d="M 18,7 L9,13 L14,7 L9,1 Z"/></marker></defs><defs><marker id="my-svg_class-dependencyStart-margin" class="marker dependency class" refX="4" refY="7" markerWidth="190" markerHeight="240" orient="auto" markerUnits="userSpaceOnUse"><path d="M 5,7 L9,13 L1,7 L9,1 Z" style="stroke-width: 0;"/></marker></defs><defs><marker id="my-svg_class-dependencyEnd-margin" class="marker dependency class" refX="16" refY="7" markerWidth="20" markerHeight="28" orient="auto" markerUnits="userSpaceOnUse"><path d="M 18,7 L9,13 L14,7 L9,1 Z" style="stroke-width: 0;"/></marker></defs><defs><marker id="my-svg_class-lollipopStart" class="marker lollipop class" refX="13" refY="7" markerWidth="190" markerHeight="240" orient="auto"><circle fill="transparent" cx="7" cy="7" r="6"/></marker></defs><defs><marker id="my-svg_class-lollipopEnd" class="marker lollipop class" refX="1" refY="7" markerWidth="190" markerHeight="240" orient="auto"><circle fill="transparent" cx="7" cy="7" r="6"/></marker></defs><defs><marker id="my-svg_class-lollipopStart-margin" class="marker lollipop class" refX="13" refY="7" markerWidth="190" markerHeight="240" orient="auto" markerUnits="userSpaceOnUse"><circle fill="transparent" cx="7" cy="7" r="6" stroke-width="2"/></marker></defs><defs><marker id="my-svg_class-lollipopEnd-margin" class="marker lollipop class" refX="1" refY="7" markerWidth="190" markerHeight="240" orient="auto" markerUnits="userSpaceOnUse"><circle fill="transparent" cx="7" cy="7" r="6" stroke-width="2"/></marker></defs><g class="root"><g class="clusters"/><g class="edgePaths"><path d="M146.297,206L139.729,212.083C133.161,218.167,120.026,230.333,113.458,243.333C106.891,256.333,106.891,270.167,106.891,277.083L106.891,284" id="my-svg-id_ReleaseUnit_Artifact_1" class="edge-thickness-normal edge-pattern-solid relation" style=";;;" data-edge="true" data-et="edge" data-id="id_ReleaseUnit_Artifact_1" data-points="W3sieCI6MTQ2LjI5NjkwMzgyODQxMzMsInkiOjIwNn0seyJ4IjoxMDYuODkwNjI1LCJ5IjoyNDIuNX0seyJ4IjoxMDYuODkwNjI1LCJ5IjoyOTB9XQ==" data-look="classic" marker-end="url(#my-svg_class-dependencyEnd)"/><path d="M360.062,206L366.63,212.083C373.198,218.167,386.333,230.333,392.901,241.5C399.469,252.667,399.469,262.833,399.469,267.917L399.469,273" id="my-svg-id_ReleaseUnit_TargetCapabilities_2" class="edge-thickness-normal edge-pattern-solid relation" style=";;;" data-edge="true" data-et="edge" data-id="id_ReleaseUnit_TargetCapabilities_2" data-points="W3sieCI6MzYwLjA2MjQ3MTE3MTU4NjcsInkiOjIwNn0seyJ4IjozOTkuNDY4NzUsInkiOjI0Mi41fSx7IngiOjM5OS40Njg3NSwieSI6Mjc5fV0=" data-look="classic" marker-end="url(#my-svg_class-dependencyEnd)"/><path d="M106.891,488L106.891,495.917C106.891,503.833,106.891,519.667,136.132,543.324C165.373,566.982,223.856,598.464,253.097,614.205L282.338,629.946" id="my-svg-id_Artifact_ExecutionState_3" class="edge-thickness-normal edge-pattern-solid relation" style=";;;" data-edge="true" data-et="edge" data-id="id_Artifact_ExecutionState_3" data-points="W3sieCI6MTA2Ljg5MDYyNSwieSI6NDg4fSx7IngiOjEwNi44OTA2MjUsInkiOjUzNS41fSx7IngiOjI4Ny42MjEwOTM3NSwieSI6NjMyLjc5MDQyMDU2MDc0NzZ9XQ==" data-look="classic" marker-end="url(#my-svg_class-dependencyEnd)"/><path d="M399.469,499L399.469,505.083C399.469,511.167,399.469,523.333,399.469,534.5C399.469,545.667,399.469,555.833,399.469,560.917L399.469,566" id="my-svg-id_TargetCapabilities_ExecutionState_4" class="edge-thickness-normal edge-pattern-solid relation" style=";;;" data-edge="true" data-et="edge" data-id="id_TargetCapabilities_ExecutionState_4" data-points="W3sieCI6Mzk5LjQ2ODc1LCJ5Ijo0OTl9LHsieCI6Mzk5LjQ2ODc1LCJ5Ijo1MzUuNX0seyJ4IjozOTkuNDY4NzUsInkiOjU3Mn1d" data-look="classic" marker-end="url(#my-svg_class-dependencyEnd)"/><path d="M739.141,195L739.141,202.917C739.141,210.833,739.141,226.667,739.141,245.167C739.141,263.667,739.141,284.833,739.141,295.417L739.141,306" id="my-svg-id_ReleaseRecord_PublishRun_5" class="edge-thickness-normal edge-pattern-solid relation" style=";;;" data-edge="true" data-et="edge" data-id="id_ReleaseRecord_PublishRun_5" data-points="W3sieCI6NzM5LjE0MDYyNSwieSI6MTk1fSx7IngiOjczOS4xNDA2MjUsInkiOjI0Mi41fSx7IngiOjczOS4xNDA2MjUsInkiOjMxMn1d" data-look="classic" marker-end="url(#my-svg_class-dependencyEnd)"/><path d="M739.141,466L739.141,477.583C739.141,489.167,739.141,512.333,702.077,541.102C665.014,569.871,590.887,604.243,553.823,621.428L516.76,638.614" id="my-svg-id_PublishRun_ExecutionState_6" class="edge-thickness-normal edge-pattern-solid relation" style=";;;" data-edge="true" data-et="edge" data-id="id_PublishRun_ExecutionState_6" data-points="W3sieCI6NzM5LjE0MDYyNSwieSI6NDY2fSx7IngiOjczOS4xNDA2MjUsInkiOjUzNS41fSx7IngiOjUxMS4zMTY0MDYyNSwieSI6NjQxLjEzODE2NzU3OTAwNTR9XQ==" data-look="classic" marker-end="url(#my-svg_class-dependencyEnd)"/></g><g class="edgeLabels"><g class="edgeLabel" transform="translate(106.890625, 242.5)"><g class="label" data-id="id_ReleaseUnit_Artifact_1" transform="translate(0, -10.5)"><g><rect class="background" style="" x="-27.734375" y="-1" width="55.46875" height="23"/><text y="-10.1" text-anchor="middle" style=""><tspan class="text-outer-tspan row" x="0" y="-0.1em" dy="1.1em" text-anchor="middle"><tspan font-style="normal" class="text-inner-tspan" font-weight="normal">derives</tspan></tspan></text></g></g></g><g class="edgeLabel" transform="translate(399.46875, 242.5)"><g class="label" data-id="id_ReleaseUnit_TargetCapabilities_2" transform="translate(0, -10.5)"><g><rect class="background" style="" x="-68.015625" y="-1" width="136.03125" height="23"/><text y="-10.1" text-anchor="middle" style=""><tspan class="text-outer-tspan row" x="0" y="-0.1em" dy="1.1em" text-anchor="middle"><tspan font-style="normal" class="text-inner-tspan" font-weight="normal">owns</tspan><tspan font-style="normal" class="text-inner-tspan" font-weight="normal"> target</tspan><tspan font-style="normal" class="text-inner-tspan" font-weight="normal"> policy</tspan></tspan></text></g></g></g><g class="edgeLabel" transform="translate(106.890625, 535.5)"><g class="label" data-id="id_Artifact_ExecutionState_3" transform="translate(0, -10.5)"><g><rect class="background" style="" x="-44.9140625" y="-1" width="89.828125" height="23"/><text y="-10.1" text-anchor="middle" style=""><tspan class="text-outer-tspan row" x="0" y="-0.1em" dy="1.1em" text-anchor="middle"><tspan font-style="normal" class="text-inner-tspan" font-weight="normal">executed</tspan><tspan font-style="normal" class="text-inner-tspan" font-weight="normal"> as</tspan></tspan></text></g></g></g><g class="edgeLabel" transform="translate(399.46875, 535.5)"><g class="label" data-id="id_TargetCapabilities_ExecutionState_4" transform="translate(0, -10.5)"><g><rect class="background" style="" x="-38.2421875" y="-1" width="76.484375" height="23"/><text y="-10.1" text-anchor="middle" style=""><tspan class="text-outer-tspan row" x="0" y="-0.1em" dy="1.1em" text-anchor="middle"><tspan font-style="normal" class="text-inner-tspan" font-weight="normal">constrains</tspan></tspan></text></g></g></g><g class="edgeLabel" transform="translate(739.140625, 242.5)"><g class="label" data-id="id_ReleaseRecord_PublishRun_5" transform="translate(0, -10.5)"><g><rect class="background" style="" x="-23.71875" y="-1" width="47.4375" height="23"/><text y="-10.1" text-anchor="middle" style=""><tspan class="text-outer-tspan row" x="0" y="-0.1em" dy="1.1em" text-anchor="middle"><tspan font-style="normal" class="text-inner-tspan" font-weight="normal">tracks</tspan></tspan></text></g></g></g><g class="edgeLabel" transform="translate(739.140625, 535.5)"><g class="label" data-id="id_PublishRun_ExecutionState_6" transform="translate(0, -10.5)"><g><rect class="background" style="" x="-19.859375" y="-1" width="39.71875" height="23"/><text y="-10.1" text-anchor="middle" style=""><tspan class="text-outer-tspan row" x="0" y="-0.1em" dy="1.1em" text-anchor="middle"><tspan font-style="normal" class="text-inner-tspan" font-weight="normal">owns</tspan></tspan></text></g></g></g><g class="edgeTerminals" transform="translate(123.26512539284037, 206.88722968763932)"><g class="inner" transform="translate(0, -7)"><g><rect class="background" style="stroke: none"/></g><text y="-10.1" text-anchor="middle"><tspan class="text-outer-tspan row" x="0" y="-0.1em" dy="1.1em" text-anchor="middle"><tspan font-style="normal" class="text-inner-tspan" font-weight="normal">1</tspan></tspan></text></g></g><g class="edgeTerminals" transform="translate(362.70819013271887, 228.89651130186422)"><g class="inner" transform="translate(0, -7)"><g><rect class="background" style="stroke: none"/></g><text y="-10.1" text-anchor="middle"><tspan class="text-outer-tspan row" x="0" y="-0.1em" dy="1.1em" text-anchor="middle"><tspan font-style="normal" class="text-inner-tspan" font-weight="normal">1</tspan></tspan></text></g></g><g class="edgeTerminals" transform="translate(91.89062750000015, 505.50000214285717)"><g class="inner" transform="translate(0, -7)"><g><rect class="background" style="stroke: none"/></g><text y="-10.1" text-anchor="middle"><tspan class="text-outer-tspan row" x="0" y="-0.1em" dy="1.1em" text-anchor="middle"><tspan font-style="normal" class="text-inner-tspan" font-weight="normal">*</tspan></tspan></text></g></g><g class="edgeTerminals" transform="translate(384.46875, 516.5)"><g class="inner" transform="translate(0, -7)"><g><rect class="background" style="stroke: none"/></g><text y="-10.1" text-anchor="middle"><tspan class="text-outer-tspan row" x="0" y="-0.1em" dy="1.1em" text-anchor="middle"><tspan font-style="normal" class="text-inner-tspan" font-weight="normal">*</tspan></tspan></text></g></g><g class="edgeTerminals" transform="translate(724.1406275, 212.50000214285714)"><g class="inner" transform="translate(0, -7)"><g><rect class="background" style="stroke: none"/></g><text y="-10.1" text-anchor="middle"><tspan class="text-outer-tspan row" x="0" y="-0.1em" dy="1.1em" text-anchor="middle"><tspan font-style="normal" class="text-inner-tspan" font-weight="normal">1</tspan></tspan></text></g></g><g class="edgeTerminals" transform="translate(724.1406275, 483.5000021428571)"><g class="inner" transform="translate(0, -7)"><g><rect class="background" style="stroke: none"/></g><text y="-10.1" text-anchor="middle"><tspan class="text-outer-tspan row" x="0" y="-0.1em" dy="1.1em" text-anchor="middle"><tspan font-style="normal" class="text-inner-tspan" font-weight="normal">1</tspan></tspan></text></g></g><g class="edgeTerminals" transform="translate(116.89062749999984, 267.50000214285717)"><g class="inner" transform="translate(0, -7)"><g><rect class="background" style="stroke: none"/></g></g><text y="-10.1" text-anchor="middle"><tspan class="text-outer-tspan row" x="0" y="-0.1em" dy="1.1em" text-anchor="middle"><tspan font-style="normal" class="text-inner-tspan" font-weight="normal">*</tspan></tspan></text></g><g class="edgeTerminals" transform="translate(409.46875, 256.5)"><g class="inner" transform="translate(0, -7)"><g><rect class="background" style="stroke: none"/></g></g><text y="-10.1" text-anchor="middle"><tspan class="text-outer-tspan row" x="0" y="-0.1em" dy="1.1em" text-anchor="middle"><tspan font-style="normal" class="text-inner-tspan" font-weight="normal">*</tspan></tspan></text></g><g class="edgeTerminals" transform="translate(274.32195339685376, 606.2875319052043)"><g class="inner" transform="translate(0, -7)"><g><rect class="background" style="stroke: none"/></g></g><text y="-10.1" text-anchor="middle"><tspan class="text-outer-tspan row" x="0" y="-0.1em" dy="1.1em" text-anchor="middle"><tspan font-style="normal" class="text-inner-tspan" font-weight="normal">*</tspan></tspan></text></g><g class="edgeTerminals" transform="translate(409.46875, 549.5)"><g class="inner" transform="translate(0, -7)"><g><rect class="background" style="stroke: none"/></g></g><text y="-10.1" text-anchor="middle"><tspan class="text-outer-tspan row" x="0" y="-0.1em" dy="1.1em" text-anchor="middle"><tspan font-style="normal" class="text-inner-tspan" font-weight="normal">*</tspan></tspan></text></g><g class="edgeTerminals" transform="translate(749.1406274999998, 289.5000021428571)"><g class="inner" transform="translate(0, -7)"><g><rect class="background" style="stroke: none"/></g></g><text y="-10.1" text-anchor="middle"><tspan class="text-outer-tspan row" x="0" y="-0.1em" dy="1.1em" text-anchor="middle"><tspan font-style="normal" class="text-inner-tspan" font-weight="normal">*</tspan></tspan></text></g><g class="edgeTerminals" transform="translate(528.5026380275831, 642.3848600575835)"><g class="inner" transform="translate(0, -7)"><g><rect class="background" style="stroke: none"/></g></g><text y="-10.1" text-anchor="middle"><tspan class="text-outer-tspan row" x="0" y="-0.1em" dy="1.1em" text-anchor="middle"><tspan font-style="normal" class="text-inner-tspan" font-weight="normal">*</tspan></tspan></text></g></g><g class="nodes"><g class="node default" id="my-svg-classId-ReleaseUnit-0" data-look="classic" transform="translate(253.1796875, 107)"><g class="basic label-container outer-path"><path d="M-113.484375 -99 L113.484375 -99 L113.484375 99 L-113.484375 99" stroke="none" stroke-width="0" fill="#ECECFF" style=""/><path d="M-113.484375 -99 C-61.25405101688386 -99, -9.023727033767713 -99, 113.484375 -99 M-113.484375 -99 C-62.34897854696508 -99, -11.213582093930157 -99, 113.484375 -99 M113.484375 -99 C113.484375 -51.663598838661166, 113.484375 -4.3271976773223315, 113.484375 99 M113.484375 -99 C113.484375 -50.38332273466766, 113.484375 -1.766645469335316, 113.484375 99 M113.484375 99 C56.5270209754391 99, -0.43033304912179915 99, -113.484375 99 M113.484375 99 C40.2666437721693 99, -32.951087455661394 99, -113.484375 99 M-113.484375 99 C-113.484375 39.55985414260064, -113.484375 -19.880291714798716, -113.484375 -99 M-113.484375 99 C-113.484375 42.47535209518214, -113.484375 -14.049295809635723, -113.484375 -99" stroke="#9370DB" stroke-width="1.3" fill="none" stroke-dasharray="0 0" style=""/></g><g class="annotation-group text" transform="translate(0, -79)"/><g class="label-group text" transform="translate(-44.453125, -79)"><g class="label" style="font-weight: bolder" transform="translate(0,-9.5)"><g><rect class="background" style="stroke: none"/><text y="-10.1" style=""><tspan class="text-outer-tspan row" x="0" y="-0.1em" dy="1.1em" font-weight=""><tspan font-style="normal" class="text-inner-tspan" font-weight="">ReleaseUnit</tspan></tspan></text></g></g></g><g class="members-group text" transform="translate(-101.484375, -36)"><g class="label" style="" transform="translate(0,-9.5)"><g><rect class="background" style="stroke: none"/><text y="-10.1" style=""><tspan class="text-outer-tspan row" x="0" y="-0.1em" dy="1.1em"><tspan font-style="normal" class="text-inner-tspan" font-weight="normal">+key:</tspan><tspan font-style="normal" class="text-inner-tspan" font-weight="normal"> string</tspan></tspan></text></g></g><g class="label" style="" transform="translate(0,12.5)"><g><rect class="background" style="stroke: none"/><text y="-10.1" style=""><tspan class="text-outer-tspan row" x="0" y="-0.1em" dy="1.1em"><tspan font-style="normal" class="text-inner-tspan" font-weight="normal">+ecosystem:</tspan><tspan font-style="normal" class="text-inner-tspan" font-weight="normal"> string</tspan></tspan></text></g></g><g class="label" style="" transform="translate(0,34.5)"><g><rect class="background" style="stroke: none"/><text y="-10.1" style=""><tspan class="text-outer-tspan row" x="0" y="-0.1em" dy="1.1em"><tspan font-style="normal" class="text-inner-tspan" font-weight="normal">+packagePath:</tspan><tspan font-style="normal" class="text-inner-tspan" font-weight="normal"> string</tspan></tspan></text></g></g><g class="label" style="" transform="translate(0,56.5)"><g><rect class="background" style="stroke: none"/><text y="-10.1" style=""><tspan class="text-outer-tspan row" x="0" y="-0.1em" dy="1.1em"><tspan font-style="normal" class="text-inner-tspan" font-weight="normal">+manifestPath:</tspan><tspan font-style="normal" class="text-inner-tspan" font-weight="normal"> string</tspan></tspan></text></g></g><g class="label" style="" transform="translate(0,78.5)"><g><rect class="background" style="stroke: none"/><text y="-10.1" style=""><tspan class="text-outer-tspan row" x="0" y="-0.1em" dy="1.1em"><tspan font-style="normal" class="text-inner-tspan" font-weight="normal">+versionSource:</tspan><tspan font-style="normal" class="text-inner-tspan" font-weight="normal"> string</tspan></tspan></text></g></g></g><g class="methods-group text" transform="translate(-101.484375, 95)"/><g class="divider" style=""><path d="M-113.484375 -56 C-30.46037398750417 -55.99963420514493, 52.56362702499166 -55.99926841028986, 113.484375 -55.999 M-113.484375 -56 C-59.72917305001291 -55.999763160338375, -5.973971100025821 -55.99952632067674, 113.484375 -55.999" stroke="#9370DB" stroke-width="1.3" fill="none" stroke-dasharray="0 0" style=""/></g><g class="divider" style=""><path d="M-113.484375 75 C-33.22580450436779 75.00035361066445, 47.03276599126443 75.0007072213289, 113.484375 75.001 M-113.484375 75 C-60.74060086170235 75.00023238341903, -7.996826723404695 75.00046476683806, 113.484375 75.001" stroke="#9370DB" stroke-width="1.3" fill="none" stroke-dasharray="0 0" style=""/></g></g><g class="node default" id="my-svg-classId-Artifact-1" data-look="classic" transform="translate(106.890625, 389)"><g class="basic label-container outer-path"><path d="M-98.890625 -99 L98.890625 -99 L98.890625 99 L-98.890625 99" stroke="none" stroke-width="0" fill="#ECECFF" style=""/><path d="M-98.890625 -99 C-34.29519958989039 -99, 30.300225820219225 -99, 98.890625 -99 M-98.890625 -99 C-25.15887256298757 -99, 48.57287987402486 -99, 98.890625 -99 M98.890625 -99 C98.890625 -28.525858073954396, 98.890625 41.94828385209121, 98.890625 99 M98.890625 -99 C98.890625 -33.49523779290382, 98.890625 32.009524414192356, 98.890625 99 M98.890625 99 C42.428134719287556 99, -14.034355561424888 99, -98.890625 99 M98.890625 99 C49.6137692732423 99, 0.33691354648459537 99, -98.890625 99 M-98.890625 99 C-98.890625 24.613821890002868, -98.890625 -49.772356219994265, -98.890625 -99 M-98.890625 99 C-98.890625 21.83409936037698, -98.890625 -55.33180127924604, -98.890625 -99" stroke="#9370DB" stroke-width="1.3" fill="none" stroke-dasharray="0 0" style=""/></g><g class="annotation-group text" transform="translate(0, -79)"/><g class="label-group text" transform="translate(-28.53125, -79)"><g class="label" style="font-weight: bolder" transform="translate(0,-9.5)"><g><rect class="background" style="stroke: none"/><text y="-10.1" style=""><tspan class="text-outer-tspan row" x="0" y="-0.1em" dy="1.1em" font-weight=""><tspan font-style="normal" class="text-inner-tspan" font-weight="">Artifact</tspan></tspan></text></g></g></g><g class="members-group text" transform="translate(-86.890625, -36)"><g class="label" style="" transform="translate(0,-9.5)"><g><rect class="background" style="stroke: none"/><text y="-10.1" style=""><tspan class="text-outer-tspan row" x="0" y="-0.1em" dy="1.1em"><tspan font-style="normal" class="text-inner-tspan" font-weight="normal">+artifactId:</tspan><tspan font-style="normal" class="text-inner-tspan" font-weight="normal"> string</tspan></tspan></text></g></g><g class="label" style="" transform="translate(0,12.5)"><g><rect class="background" style="stroke: none"/><text y="-10.1" style=""><tspan class="text-outer-tspan row" x="0" y="-0.1em" dy="1.1em"><tspan font-style="normal" class="text-inner-tspan" font-weight="normal">+unitKey:</tspan><tspan font-style="normal" class="text-inner-tspan" font-weight="normal"> string</tspan></tspan></text></g></g><g class="label" style="" transform="translate(0,34.5)"><g><rect class="background" style="stroke: none"/><text y="-10.1" style=""><tspan class="text-outer-tspan row" x="0" y="-0.1em" dy="1.1em"><tspan font-style="normal" class="text-inner-tspan" font-weight="normal">+format:</tspan><tspan font-style="normal" class="text-inner-tspan" font-weight="normal"> string</tspan></tspan></text></g></g><g class="label" style="" transform="translate(0,56.5)"><g><rect class="background" style="stroke: none"/><text y="-10.1" style=""><tspan class="text-outer-tspan row" x="0" y="-0.1em" dy="1.1em"><tspan font-style="normal" class="text-inner-tspan" font-weight="normal">+artifactPath:</tspan><tspan font-style="normal" class="text-inner-tspan" font-weight="normal"> string</tspan></tspan></text></g></g><g class="label" style="" transform="translate(0,78.5)"><g><rect class="background" style="stroke: none"/><text y="-10.1" style=""><tspan class="text-outer-tspan row" x="0" y="-0.1em" dy="1.1em"><tspan font-style="normal" class="text-inner-tspan" font-weight="normal">+checksum:</tspan><tspan font-style="normal" class="text-inner-tspan" font-weight="normal"> string</tspan></tspan></text></g></g></g><g class="methods-group text" transform="translate(-86.890625, 95)"/><g class="divider" style=""><path d="M-98.890625 -56 C-25.97671774772317 -55.99963134064907, 46.93718950455366 -55.99926268129813, 98.890625 -55.999 M-98.890625 -56 C-25.113591192720705 -55.99962697660265, 48.66344261455859 -55.9992539532053, 98.890625 -55.999" stroke="#9370DB" stroke-width="1.3" fill="none" stroke-dasharray="0 0" style=""/></g><g class="divider" style=""><path d="M-98.890625 75 C-37.45391519230478 75.00031062959613, 23.982794615390446 75.00062125919224, 98.890625 75.001 M-98.890625 75 C-26.061727704078947 75.00036822953287, 46.767169591842105 75.00073645906572, 98.890625 75.001" stroke="#9370DB" stroke-width="1.3" fill="none" stroke-dasharray="0 0" style=""/></g></g><g class="node default" id="my-svg-classId-TargetCapabilities-2" data-look="classic" transform="translate(399.46875, 389)"><g class="basic label-container outer-path"><path d="M-143.6875 -110 L143.6875 -110 L143.6875 110 L-143.6875 110" stroke="none" stroke-width="0" fill="#ECECFF" style=""/><path d="M-143.6875 -110 C-53.18764391641571 -110, 37.31221216716858 -110, 143.6875 -110 M-143.6875 -110 C-44.23274814282186 -110, 55.222003714356276 -110, 143.6875 -110 M143.6875 -110 C143.6875 -63.15989398600152, 143.6875 -16.31978797200304, 143.6875 110 M143.6875 -110 C143.6875 -63.60973017680213, 143.6875 -17.219460353604262, 143.6875 110 M143.6875 110 C35.2295867561938 110, -73.2283264876124 110, -143.6875 110 M143.6875 110 C56.28947417230782 110, -31.10855165538436 110, -143.6875 110 M-143.6875 110 C-143.6875 22.93388665187703, -143.6875 -64.13222669624594, -143.6875 -110 M-143.6875 110 C-143.6875 54.16353432885444, -143.6875 -1.6729313422911218, -143.6875 -110" stroke="#9370DB" stroke-width="1.3" fill="none" stroke-dasharray="0 0" style=""/></g><g class="annotation-group text" transform="translate(0, -90)"/><g class="label-group text" transform="translate(-66.9375, -90)"><g class="label" style="font-weight: bolder" transform="translate(0,-9.5)"><g><rect class="background" style="stroke: none"/><text y="-10.1" style=""><tspan class="text-outer-tspan row" x="0" y="-0.1em" dy="1.1em" font-weight=""><tspan font-style="normal" class="text-inner-tspan" font-weight="">TargetCapabilities</tspan></tspan></text></g></g></g><g class="members-group text" transform="translate(-131.6875, -47)"><g class="label" style="" transform="translate(0,-9.5)"><g><rect class="background" style="stroke: none"/><text y="-10.1" style=""><tspan class="text-outer-tspan row" x="0" y="-0.1em" dy="1.1em"><tspan font-style="normal" class="text-inner-tspan" font-weight="normal">+targetKey:</tspan><tspan font-style="normal" class="text-inner-tspan" font-weight="normal"> string</tspan></tspan></text></g></g><g class="label" style="" transform="translate(0,12.5)"><g><rect class="background" style="stroke: none"/><text y="-10.1" style=""><tspan class="text-outer-tspan row" x="0" y="-0.1em" dy="1.1em"><tspan font-style="normal" class="text-inner-tspan" font-weight="normal">+kind:</tspan><tspan font-style="normal" class="text-inner-tspan" font-weight="normal"> string</tspan></tspan></text></g></g><g class="label" style="" transform="translate(0,34.5)"><g><rect class="background" style="stroke: none"/><text y="-10.1" style=""><tspan class="text-outer-tspan row" x="0" y="-0.1em" dy="1.1em"><tspan font-style="normal" class="text-inner-tspan" font-weight="normal">+requiresArtifact:</tspan><tspan font-style="normal" class="text-inner-tspan" font-weight="normal"> boolean</tspan></tspan></text></g></g><g class="label" style="" transform="translate(0,56.5)"><g><rect class="background" style="stroke: none"/><text y="-10.1" style=""><tspan class="text-outer-tspan row" x="0" y="-0.1em" dy="1.1em"><tspan font-style="normal" class="text-inner-tspan" font-weight="normal">+canDryRun:</tspan><tspan font-style="normal" class="text-inner-tspan" font-weight="normal"> boolean</tspan></tspan></text></g></g><g class="label" style="" transform="translate(0,78.5)"><g><rect class="background" style="stroke: none"/><text y="-10.1" style=""><tspan class="text-outer-tspan row" x="0" y="-0.1em" dy="1.1em"><tspan font-style="normal" class="text-inner-tspan" font-weight="normal">+canRetry:</tspan><tspan font-style="normal" class="text-inner-tspan" font-weight="normal"> boolean</tspan></tspan></text></g></g><g class="label" style="" transform="translate(0,100.5)"><g><rect class="background" style="stroke: none"/><text y="-10.1" style=""><tspan class="text-outer-tspan row" x="0" y="-0.1em" dy="1.1em"><tspan font-style="normal" class="text-inner-tspan" font-weight="normal">+supportsRollback:</tspan><tspan font-style="normal" class="text-inner-tspan" font-weight="normal"> boolean</tspan></tspan></text></g></g></g><g class="methods-group text" transform="translate(-131.6875, 106)"/><g class="divider" style=""><path d="M-143.6875 -67 C-62.97797501725317 -66.99971914910837, 17.731549965493656 -66.99943829821673, 143.6875 -66.999 M-143.6875 -67 C-51.518832008882455 -66.99967927388259, 40.64983598223509 -66.99935854776517, 143.6875 -66.999" stroke="#9370DB" stroke-width="1.3" fill="none" stroke-dasharray="0 0" style=""/></g><g class="divider" style=""><path d="M-143.6875 86 C-85.0373696415233 86.00020408918785, -26.387239283046583 86.00040817837571, 143.6875 86.001 M-143.6875 86 C-44.728584677516125 86.00034435464227, 54.23033064496775 86.00068870928455, 143.6875 86.001" stroke="#9370DB" stroke-width="1.3" fill="none" stroke-dasharray="0 0" style=""/></g></g><g class="node default" id="my-svg-classId-ExecutionState-3" data-look="classic" transform="translate(399.46875, 693)"><g class="basic label-container outer-path"><path d="M-111.84765625 -121 L111.84765625 -121 L111.84765625 121 L-111.84765625 121" stroke="none" stroke-width="0" fill="#ECECFF" style=""/><path d="M-111.84765625 -121 C-30.57942095153973 -121, 50.68881434692054 -121, 111.84765625 -121 M-111.84765625 -121 C-23.074550175534625 -121, 65.69855589893075 -121, 111.84765625 -121 M111.84765625 -121 C111.84765625 -58.02293567154991, 111.84765625 4.954128656900181, 111.84765625 121 M111.84765625 -121 C111.84765625 -50.09350706041762, 111.84765625 20.812985879164756, 111.84765625 121 M111.84765625 121 C56.42131454318536 121, 0.9949728363707209 121, -111.84765625 121 M111.84765625 121 C58.97753558360541 121, 6.107414917210818 121, -111.84765625 121 M-111.84765625 121 C-111.84765625 42.52555846954853, -111.84765625 -35.94888306090294, -111.84765625 -121 M-111.84765625 121 C-111.84765625 36.14282620824311, -111.84765625 -48.714347583513785, -111.84765625 -121" stroke="#9370DB" stroke-width="1.3" fill="none" stroke-dasharray="0 0" style=""/></g><g class="annotation-group text" transform="translate(0, -101)"/><g class="label-group text" transform="translate(-56.4921875, -101)"><g class="label" style="font-weight: bolder" transform="translate(0,-9.5)"><g><rect class="background" style="stroke: none"/><text y="-10.1" style=""><tspan class="text-outer-tspan row" x="0" y="-0.1em" dy="1.1em" font-weight=""><tspan font-style="normal" class="text-inner-tspan" font-weight="">ExecutionState</tspan></tspan></text></g></g></g><g class="members-group text" transform="translate(-99.84765625, -58)"><g class="label" style="" transform="translate(0,-9.5)"><g><rect class="background" style="stroke: none"/><text y="-10.1" style=""><tspan class="text-outer-tspan row" x="0" y="-0.1em" dy="1.1em"><tspan font-style="normal" class="text-inner-tspan" font-weight="normal">+executionId:</tspan><tspan font-style="normal" class="text-inner-tspan" font-weight="normal"> string</tspan></tspan></text></g></g><g class="label" style="" transform="translate(0,12.5)"><g><rect class="background" style="stroke: none"/><text y="-10.1" style=""><tspan class="text-outer-tspan row" x="0" y="-0.1em" dy="1.1em"><tspan font-style="normal" class="text-inner-tspan" font-weight="normal">+phase:</tspan><tspan font-style="normal" class="text-inner-tspan" font-weight="normal"> string</tspan></tspan></text></g></g><g class="label" style="" transform="translate(0,34.5)"><g><rect class="background" style="stroke: none"/><text y="-10.1" style=""><tspan class="text-outer-tspan row" x="0" y="-0.1em" dy="1.1em"><tspan font-style="normal" class="text-inner-tspan" font-weight="normal">+targetKey:</tspan><tspan font-style="normal" class="text-inner-tspan" font-weight="normal"> string</tspan></tspan></text></g></g><g class="label" style="" transform="translate(0,56.5)"><g><rect class="background" style="stroke: none"/><text y="-10.1" style=""><tspan class="text-outer-tspan row" x="0" y="-0.1em" dy="1.1em"><tspan font-style="normal" class="text-inner-tspan" font-weight="normal">+artifactId:</tspan><tspan font-style="normal" class="text-inner-tspan" font-weight="normal"> string</tspan></tspan></text></g></g><g class="label" style="" transform="translate(0,78.5)"><g><rect class="background" style="stroke: none"/><text y="-10.1" style=""><tspan class="text-outer-tspan row" x="0" y="-0.1em" dy="1.1em"><tspan font-style="normal" class="text-inner-tspan" font-weight="normal">+status:</tspan><tspan font-style="normal" class="text-inner-tspan" font-weight="normal"> string</tspan></tspan></text></g></g><g class="label" style="" transform="translate(0,100.5)"><g><rect class="background" style="stroke: none"/><text y="-10.1" style=""><tspan class="text-outer-tspan row" x="0" y="-0.1em" dy="1.1em"><tspan font-style="normal" class="text-inner-tspan" font-weight="normal">+attempt:</tspan><tspan font-style="normal" class="text-inner-tspan" font-weight="normal"> number</tspan></tspan></text></g></g><g class="label" style="" transform="translate(0,122.5)"><g><rect class="background" style="stroke: none"/><text y="-10.1" style=""><tspan class="text-outer-tspan row" x="0" y="-0.1em" dy="1.1em"><tspan font-style="normal" class="text-inner-tspan" font-weight="normal">+lastError?:</tspan><tspan font-style="normal" class="text-inner-tspan" font-weight="normal"> string</tspan></tspan></text></g></g></g><g class="methods-group text" transform="translate(-99.84765625, 117)"/><g class="divider" style=""><path d="M-111.84765625 -78 C-31.033776659162626 -77.99963873235122, 49.78010293167475 -77.99927746470243, 111.84765625 -77.999 M-111.84765625 -78 C-34.87083080238847 -77.99965588538898, 42.10599464522306 -77.99931177077796, 111.84765625 -77.999" stroke="#9370DB" stroke-width="1.3" fill="none" stroke-dasharray="0 0" style=""/></g><g class="divider" style=""><path d="M-111.84765625 97 C-66.60282103942215 97.00020226098931, -21.357985828844306 97.00040452197862, 111.84765625 97.001 M-111.84765625 97 C-63.089938808157214 97.00021796485987, -14.332221366314428 97.00043592971973, 111.84765625 97.001" stroke="#9370DB" stroke-width="1.3" fill="none" stroke-dasharray="0 0" style=""/></g></g><g class="node default" id="my-svg-classId-ReleaseRecord-4" data-look="classic" transform="translate(739.140625, 107)"><g class="basic label-container outer-path"><path d="M-107.61328125 -88 L107.61328125 -88 L107.61328125 88 L-107.61328125 88" stroke="none" stroke-width="0" fill="#ECECFF" style=""/><path d="M-107.61328125 -88 C-46.654675782259545 -88, 14.30392968548091 -88, 107.61328125 -88 M-107.61328125 -88 C-27.02357710077071 -88, 53.56612704845858 -88, 107.61328125 -88 M107.61328125 -88 C107.61328125 -19.372980384688617, 107.61328125 49.254039230622766, 107.61328125 88 M107.61328125 -88 C107.61328125 -33.68164382701877, 107.61328125 20.636712345962465, 107.61328125 88 M107.61328125 88 C49.66693800267717 88, -8.279405244645659 88, -107.61328125 88 M107.61328125 88 C51.33061780593013 88, -4.952045638139737 88, -107.61328125 88 M-107.61328125 88 C-107.61328125 19.44949825304856, -107.61328125 -49.10100349390288, -107.61328125 -88 M-107.61328125 88 C-107.61328125 38.58988090572757, -107.61328125 -10.820238188544863, -107.61328125 -88" stroke="#9370DB" stroke-width="1.3" fill="none" stroke-dasharray="0 0" style=""/></g><g class="annotation-group text" transform="translate(0, -68)"/><g class="label-group text" transform="translate(-54.9140625, -68)"><g class="label" style="font-weight: bolder" transform="translate(0,-9.5)"><g><rect class="background" style="stroke: none"/><text y="-10.1" style=""><tspan class="text-outer-tspan row" x="0" y="-0.1em" dy="1.1em" font-weight=""><tspan font-style="normal" class="text-inner-tspan" font-weight="">ReleaseRecord</tspan></tspan></text></g></g></g><g class="members-group text" transform="translate(-95.61328125, -25)"><g class="label" style="" transform="translate(0,-9.5)"><g><rect class="background" style="stroke: none"/><text y="-10.1" style=""><tspan class="text-outer-tspan row" x="0" y="-0.1em" dy="1.1em"><tspan font-style="normal" class="text-inner-tspan" font-weight="normal">+recordId:</tspan><tspan font-style="normal" class="text-inner-tspan" font-weight="normal"> string</tspan></tspan></text></g></g><g class="label" style="" transform="translate(0,12.5)"><g><rect class="background" style="stroke: none"/><text y="-10.1" style=""><tspan class="text-outer-tspan row" x="0" y="-0.1em" dy="1.1em"><tspan font-style="normal" class="text-inner-tspan" font-weight="normal">+planId:</tspan><tspan font-style="normal" class="text-inner-tspan" font-weight="normal"> string</tspan></tspan></text></g></g><g class="label" style="" transform="translate(0,34.5)"><g><rect class="background" style="stroke: none"/><text y="-10.1" style=""><tspan class="text-outer-tspan row" x="0" y="-0.1em" dy="1.1em"><tspan font-style="normal" class="text-inner-tspan" font-weight="normal">+state:</tspan><tspan font-style="normal" class="text-inner-tspan" font-weight="normal"> string</tspan></tspan></text></g></g><g class="label" style="" transform="translate(0,56.5)"><g><rect class="background" style="stroke: none"/><text y="-10.1" style=""><tspan class="text-outer-tspan row" x="0" y="-0.1em" dy="1.1em"><tspan font-style="normal" class="text-inner-tspan" font-weight="normal">+releaseSha:</tspan><tspan font-style="normal" class="text-inner-tspan" font-weight="normal"> string</tspan></tspan></text></g></g></g><g class="methods-group text" transform="translate(-95.61328125, 84)"/><g class="divider" style=""><path d="M-107.61328125 -45 C-24.237746035018276 -44.999612615031126, 59.13778917996345 -44.99922523006225, 107.61328125 -44.999 M-107.61328125 -45 C-29.29698865479439 -44.99963612162139, 49.01930394041122 -44.99927224324279, 107.61328125 -44.999" stroke="#9370DB" stroke-width="1.3" fill="none" stroke-dasharray="0 0" style=""/></g><g class="divider" style=""><path d="M-107.61328125 64 C-49.84588620185595 64.00026840272119, 7.921508846288106 64.0005368054424, 107.61328125 64.001 M-107.61328125 64 C-49.155472366637426 64.00027161056798, 9.302336516725148 64.00054322113594, 107.61328125 64.001" stroke="#9370DB" stroke-width="1.3" fill="none" stroke-dasharray="0 0" style=""/></g></g><g class="node default" id="my-svg-classId-PublishRun-5" data-look="classic" transform="translate(739.140625, 389)"><g class="basic label-container outer-path"><path d="M-145.984375 -77 L145.984375 -77 L145.984375 77 L-145.984375 77" stroke="none" stroke-width="0" fill="#ECECFF" style=""/><path d="M-145.984375 -77 C-63.6696711467133 -77, 18.645032706573403 -77, 145.984375 -77 M-145.984375 -77 C-38.56143223050391 -77, 68.86151053899218 -77, 145.984375 -77 M145.984375 -77 C145.984375 -24.743574169294035, 145.984375 27.51285166141193, 145.984375 77 M145.984375 -77 C145.984375 -20.77291394982541, 145.984375 35.45417210034918, 145.984375 77 M145.984375 77 C72.89320667106891 77, -0.19796165786218012 77, -145.984375 77 M145.984375 77 C57.917485185191424 77, -30.149404629617152 77, -145.984375 77 M-145.984375 77 C-145.984375 27.71355668885579, -145.984375 -21.572886622288422, -145.984375 -77 M-145.984375 77 C-145.984375 42.89669680988228, -145.984375 8.793393619764558, -145.984375 -77" stroke="#9370DB" stroke-width="1.3" fill="none" stroke-dasharray="0 0" style=""/></g><g class="annotation-group text" transform="translate(0, -57)"/><g class="label-group text" transform="translate(-41.34375, -57)"><g class="label" style="font-weight: bolder" transform="translate(0,-9.5)"><g><rect class="background" style="stroke: none"/><text y="-10.1" style=""><tspan class="text-outer-tspan row" x="0" y="-0.1em" dy="1.1em" font-weight=""><tspan font-style="normal" class="text-inner-tspan" font-weight="">PublishRun</tspan></tspan></text></g></g></g><g class="members-group text" transform="translate(-133.984375, -14)"><g class="label" style="" transform="translate(0,-9.5)"><g><rect class="background" style="stroke: none"/><text y="-10.1" style=""><tspan class="text-outer-tspan row" x="0" y="-0.1em" dy="1.1em"><tspan font-style="normal" class="text-inner-tspan" font-weight="normal">+runId:</tspan><tspan font-style="normal" class="text-inner-tspan" font-weight="normal"> string</tspan></tspan></text></g></g><g class="label" style="" transform="translate(0,12.5)"><g><rect class="background" style="stroke: none"/><text y="-10.1" style=""><tspan class="text-outer-tspan row" x="0" y="-0.1em" dy="1.1em"><tspan font-style="normal" class="text-inner-tspan" font-weight="normal">+releaseRecordId:</tspan><tspan font-style="normal" class="text-inner-tspan" font-weight="normal"> string</tspan></tspan></text></g></g><g class="label" style="" transform="translate(0,34.5)"><g><rect class="background" style="stroke: none"/><text y="-10.1" style=""><tspan class="text-outer-tspan row" x="0" y="-0.1em" dy="1.1em"><tspan font-style="normal" class="text-inner-tspan" font-weight="normal">+targetStates:</tspan><tspan font-style="normal" class="text-inner-tspan" font-weight="normal"> ExecutionState[]</tspan></tspan></text></g></g></g><g class="methods-group text" transform="translate(-133.984375, 73)"/><g class="divider" style=""><path d="M-145.984375 -34 C-54.95939715789734 -33.99968823725881, 36.065580684205315 -33.99937647451762, 145.984375 -33.999 M-145.984375 -34 C-60.76956824670317 -33.99970813723471, 24.445238506593654 -33.99941627446942, 145.984375 -33.999" stroke="#9370DB" stroke-width="1.3" fill="none" stroke-dasharray="0 0" style=""/></g><g class="divider" style=""><path d="M-145.984375 53 C-41.66810512683435 53.00035728573648, 62.648164746331304 53.00071457147296, 145.984375 53.001 M-145.984375 53 C-83.58558839512219 53.000213717346824, -21.186801790244374 53.00042743469364, 145.984375 53.001" stroke="#9370DB" stroke-width="1.3" fill="none" stroke-dasharray="0 0" style=""/></g></g></g></g></g><defs><filter id="my-svg-drop-shadow" height="130%" width="130%"><feDropShadow dx="4" dy="4" stdDeviation="0" flood-opacity="0.06" flood-color="#000000"/></filter></defs><defs><filter id="my-svg-drop-shadow-small" height="150%" width="150%"><feDropShadow dx="2" dy="2" stdDeviation="0" flood-opacity="0.06" flood-color="#000000"/></filter></defs></svg>