<?xml version="1.0" standalone="no"?>
<!DOCTYPE svg PUBLIC "-//W3C//DTD SVG 20010904//EN"
 "http://www.w3.org/TR/2001/REC-SVG-20010904/DTD/svg10.dtd">
<svg version="1.0" xmlns="http://www.w3.org/2000/svg"
 width="150.000000pt" height="150.000000pt" viewBox="0 0 150.000000 150.000000"
 preserveAspectRatio="xMidYMid meet">

<g transform="translate(0.000000,150.000000) scale(0.100000,-0.100000)"
fill="#000000" stroke="none">
<path d="M40 1403 c0 -5 -9 -82 -20 -173 -11 -91 -20 -197 -20 -236 l0 -71 88
-11 c48 -6 134 -16 192 -23 58 -6 109 -16 115 -20 18 -17 -20 -36 -125 -64
-58 -15 -110 -30 -116 -34 -8 -4 -3 -36 17 -106 16 -55 29 -105 29 -111 0 -5
-24 -16 -52 -24 -143 -36 -148 -38 -148 -73 0 -30 95 -395 106 -406 2 -3 99
21 215 53 116 32 217 55 224 52 7 -2 16 -23 20 -46 4 -23 12 -44 19 -46 11 -4
720 186 757 203 15 7 14 18 -12 108 -16 55 -29 105 -29 111 0 5 24 16 53 24
141 35 147 38 147 71 0 16 -7 59 -16 95 -16 60 -16 76 0 207 9 78 16 190 16
249 0 103 -1 108 -22 112 -29 7 -1397 166 -1420 166 -10 0 -18 -3 -18 -7z
m265 -98 c77 -9 141 -17 142 -18 5 -6 -39 -323 -46 -330 -5 -5 -25 -5 -46 -1
l-37 7 6 51 c3 28 8 83 12 122 l7 71 -34 5 c-19 3 -35 5 -37 3 -1 -1 -9 -55
-17 -120 -8 -65 -16 -120 -19 -122 -4 -4 -157 15 -163 20 -1 2 6 77 17 168 11
90 20 165 20 167 0 2 12 1 28 -2 15 -3 90 -12 167 -21z m424 -50 c68 -8 126
-17 129 -19 6 -6 -29 -319 -37 -328 -3 -4 -39 -3 -80 3 -82 10 -91 6 -91 -44
l0 -28 -57 6 c-105 11 -113 14 -113 41 0 32 39 365 45 382 3 8 17 11 42 7 21
-3 94 -12 162 -20z m464 -54 c131 -16 240 -31 243 -34 5 -5 -21 -264 -31 -314
-4 -19 -10 -21 -43 -16 -20 3 -40 8 -44 12 -3 3 0 57 8 120 7 63 12 116 10
118 -2 2 -19 6 -38 10 l-35 5 -13 -115 c-7 -64 -16 -120 -19 -125 -3 -5 -23
-7 -43 -4 -44 5 -43 -1 -25 149 l13 102 -35 6 c-21 4 -37 2 -41 -5 -4 -6 -12
-61 -19 -123 -7 -61 -13 -112 -14 -113 -7 -7 -167 20 -167 28 0 15 29 259 35
296 3 17 9 32 13 32 4 0 114 -13 245 -29z m-357 -381 c11 0 37 -80 30 -88 -2
-2 -49 -16 -105 -31 -56 -16 -104 -30 -106 -33 -2 -2 2 -26 9 -53 15 -57 7
-56 140 -19 48 14 91 23 93 20 12 -12 92 -321 85 -327 -6 -6 -299 -89 -314
-89 -8 0 -40 101 -34 107 2 2 49 17 105 32 56 16 104 30 106 33 2 2 -2 26 -9
53 -15 57 -7 56 -140 19 -48 -14 -91 -23 -93 -20 -3 3 -25 76 -49 163 -31 110
-41 160 -33 168 9 9 111 10 174 2 14 -1 21 5 25 28 4 23 12 31 35 36 17 4 39
5 50 3 11 -2 25 -4 31 -4z m379 -41 c61 -7 115 -17 122 -23 6 -6 18 -36 26
-67 l14 -56 -54 -16 c-61 -16 -61 -16 -78 61 -3 17 -11 32 -16 32 -26 0 -99
-26 -99 -35 0 -5 20 -81 44 -167 l43 -157 -55 -16 c-30 -9 -55 -15 -57 -13 -3
3 -116 416 -119 432 -1 9 71 33 104 35 8 1 65 -4 125 -10z m-761 -271 c32
-117 59 -217 60 -221 1 -8 -291 -96 -320 -97 -7 0 -25 48 -42 108 l-30 107 52
16 c28 9 54 14 57 12 4 -1 12 -25 19 -53 7 -27 16 -50 21 -50 26 0 99 26 99
35 0 5 -20 81 -44 167 l-43 158 46 14 c25 8 51 14 57 15 6 1 36 -95 68 -211z"/>
<path d="M687 1153 c-3 -10 -9 -46 -12 -79 l-7 -61 34 -5 c18 -3 36 -1 39 4 7
11 22 139 17 143 -2 2 -17 6 -35 9 -25 6 -32 4 -36 -11z"/>
</g>
</svg>
